<?xml version="1.0" encoding="UTF-8" standalone="no"?>
<!DOCTYPE svg PUBLIC "-//W3C//DTD SVG 1.1//EN"
 "http://www.w3.org/Graphics/SVG/1.1/DTD/svg11.dtd">
<!-- Generated by graphviz version 2.43.0 (0)
 -->
<!-- Title: G Pages: 1 -->
<svg width="532pt" height="341pt"
 viewBox="0.00 0.00 532.00 341.00" xmlns="http://www.w3.org/2000/svg" xmlns:xlink="http://www.w3.org/1999/xlink">
<g id="graph0" class="graph" transform="scale(1 1) rotate(0) translate(4 337)">
<title>G</title>
<polygon fill="white" stroke="transparent" points="-4,4 -4,-337 528,-337 528,4 -4,4"/>
<g id="clust1" class="cluster">
<title>cluster1</title>
<polygon fill="#78dbe2" stroke="#78dbe2" points="8,-8 8,-325 516,-325 516,-8 8,-8"/>
</g>
<!-- _88716844466592 -->
<g id="node1" class="node">
<title>_88716844466592</title>
<polygon fill="#9f8170" stroke="#050505" points="177.5,-280.5 177.5,-316.5 264.5,-316.5 264.5,-280.5 177.5,-280.5"/>
<text text-anchor="middle" x="221" y="-294.8" font-family="Times,serif" font-size="14.00" fill="#0a2033">A person?</text>
</g>
<!-- _88716844466944 -->
<g id="node2" class="node">
<title>_88716844466944</title>
<polygon fill="#9f8170" stroke="#050505" points="120,-192.5 120,-228.5 180,-228.5 180,-192.5 120,-192.5"/>
<text text-anchor="middle" x="150" y="-206.8" font-family="Times,serif" font-size="14.00" fill="#0a2033">A cat?</text>
</g>
<!-- _88716844466592&#45;&gt;_88716844466944 -->
<g id="edge1" class="edge">
<title>_88716844466592&#45;&gt;_88716844466944</title>
<path fill="none" stroke="#b32851" d="M206.63,-280.1C196.27,-267.54 182.12,-250.41 170.56,-236.41"/>
<polygon fill="#b32851" stroke="#b32851" points="173.17,-234.07 164.1,-228.58 167.77,-238.52 173.17,-234.07"/>
<text text-anchor="middle" x="199.5" y="-250.8" font-family="Times,serif" font-size="14.00">No</text>
</g>
<!-- _88716844468704 -->
<g id="node7" class="node">
<title>_88716844468704</title>
<polygon fill="#9f8170" stroke="#050505" points="263.5,-192.5 263.5,-228.5 322.5,-228.5 322.5,-192.5 263.5,-192.5"/>
<text text-anchor="middle" x="293" y="-206.8" font-family="Times,serif" font-size="14.00" fill="#0a2033">Male?</text>
</g>
<!-- _88716844466592&#45;&gt;_88716844468704 -->
<g id="edge6" class="edge">
<title>_88716844466592&#45;&gt;_88716844468704</title>
<path fill="none" stroke="#03c03c" d="M235.57,-280.1C246.08,-267.54 260.42,-250.41 272.15,-236.41"/>
<polygon fill="#03c03c" stroke="#03c03c" points="274.96,-238.5 278.7,-228.58 269.59,-234 274.96,-238.5"/>
<text text-anchor="middle" x="273.5" y="-250.8" font-family="Times,serif" font-size="14.00">Yes</text>
</g>
<!-- _88716844467296 -->
<g id="node3" class="node">
<title>_88716844467296</title>
<polygon fill="#9f8170" stroke="#050505" points="16.5,-104.5 16.5,-140.5 81.5,-140.5 81.5,-104.5 16.5,-104.5"/>
<text text-anchor="middle" x="49" y="-118.8" font-family="Times,serif" font-size="14.00" fill="#0a2033">A dog?</text>
</g>
<!-- _88716844466944&#45;&gt;_88716844467296 -->
<g id="edge2" class="edge">
<title>_88716844466944&#45;&gt;_88716844467296</title>
<path fill="none" stroke="#b32851" d="M129.56,-192.1C114.4,-179.19 93.56,-161.45 76.88,-147.24"/>
<polygon fill="#b32851" stroke="#b32851" points="78.95,-144.4 69.06,-140.58 74.41,-149.73 78.95,-144.4"/>
<text text-anchor="middle" x="115.5" y="-162.8" font-family="Times,serif" font-size="14.00">No</text>
</g>
<!-- _88716844468352 -->
<g id="node6" class="node">
<title>_88716844468352</title>
<polygon fill="#755d9a" stroke="#050505" points="99.5,-104.5 99.5,-140.5 200.5,-140.5 200.5,-104.5 99.5,-104.5"/>
<text text-anchor="middle" x="150" y="-118.8" font-family="Times,serif" font-size="14.00" fill="#0a2033">Poltorashka</text>
</g>
<!-- _88716844466944&#45;&gt;_88716844468352 -->
<g id="edge5" class="edge">
<title>_88716844466944&#45;&gt;_88716844468352</title>
<path fill="none" stroke="#03c03c" d="M150,-192.1C150,-180.25 150,-164.32 150,-150.79"/>
<polygon fill="#03c03c" stroke="#03c03c" points="153.5,-150.58 150,-140.58 146.5,-150.58 153.5,-150.58"/>
<text text-anchor="middle" x="162.5" y="-162.8" font-family="Times,serif" font-size="14.00">Yes</text>
</g>
<!-- _88716844467648 -->
<g id="node4" class="node">
<title>_88716844467648</title>
<polygon fill="#755d9a" stroke="#050505" points="18,-16.5 18,-52.5 74,-52.5 74,-16.5 18,-16.5"/>
<text text-anchor="middle" x="46" y="-30.8" font-family="Times,serif" font-size="14.00" fill="#0a2033">Bobic</text>
</g>
<!-- _88716844467296&#45;&gt;_88716844467648 -->
<g id="edge3" class="edge">
<title>_88716844467296&#45;&gt;_88716844467648</title>
<path fill="none" stroke="#b32851" d="M48.39,-104.1C47.98,-92.25 47.42,-76.32 46.95,-62.79"/>
<polygon fill="#b32851" stroke="#b32851" points="50.44,-62.46 46.6,-52.58 43.45,-62.7 50.44,-62.46"/>
<text text-anchor="middle" x="58.5" y="-74.8" font-family="Times,serif" font-size="14.00">No</text>
</g>
<!-- _88716844468000 -->
<g id="node5" class="node">
<title>_88716844468000</title>
<polygon fill="#755d9a" stroke="#050505" points="92,-16.5 92,-52.5 154,-52.5 154,-16.5 92,-16.5"/>
<text text-anchor="middle" x="123" y="-30.8" font-family="Times,serif" font-size="14.00" fill="#0a2033">Sharic</text>
</g>
<!-- _88716844467296&#45;&gt;_88716844468000 -->
<g id="edge4" class="edge">
<title>_88716844467296&#45;&gt;_88716844468000</title>
<path fill="none" stroke="#03c03c" d="M63.98,-104.1C74.78,-91.54 89.52,-74.41 101.57,-60.41"/>
<polygon fill="#03c03c" stroke="#03c03c" points="104.43,-62.45 108.3,-52.58 99.12,-57.88 104.43,-62.45"/>
<text text-anchor="middle" x="102.5" y="-74.8" font-family="Times,serif" font-size="14.00">Yes</text>
</g>
<!-- _88716844469056 -->
<g id="node8" class="node">
<title>_88716844469056</title>
<polygon fill="#755d9a" stroke="#050505" points="218.5,-104.5 218.5,-140.5 367.5,-140.5 367.5,-104.5 218.5,-104.5"/>
<text text-anchor="middle" x="293" y="-118.8" font-family="Times,serif" font-size="14.00" fill="#0a2033">Olga Vladimirovna</text>
</g>
<!-- _88716844468704&#45;&gt;_88716844469056 -->
<g id="edge7" class="edge">
<title>_88716844468704&#45;&gt;_88716844469056</title>
<path fill="none" stroke="#b32851" d="M293,-192.1C293,-180.25 293,-164.32 293,-150.79"/>
<polygon fill="#b32851" stroke="#b32851" points="296.5,-150.58 293,-140.58 289.5,-150.58 296.5,-150.58"/>
<text text-anchor="middle" x="303.5" y="-162.8" font-family="Times,serif" font-size="14.00">No</text>
</g>
<!-- _88716844469408 -->
<g id="node9" class="node">
<title>_88716844469408</title>
<polygon fill="#755d9a" stroke="#050505" points="386,-104.5 386,-140.5 508,-140.5 508,-104.5 386,-104.5"/>
<text text-anchor="middle" x="447" y="-118.8" font-family="Times,serif" font-size="14.00" fill="#0a2033">Iliya Dedinskiy</text>
</g>
<!-- _88716844468704&#45;&gt;_88716844469408 -->
<g id="edge8" class="edge">
<title>_88716844468704&#45;&gt;_88716844469408</title>
<path fill="none" stroke="#03c03c" d="M322.69,-192.92C346.77,-179.47 380.93,-160.39 407.35,-145.64"/>
<polygon fill="#03c03c" stroke="#03c03c" points="409.32,-148.55 416.34,-140.62 405.91,-142.44 409.32,-148.55"/>
<text text-anchor="middle" x="391.5" y="-162.8" font-family="Times,serif" font-size="14.00">Yes</text>
</g>
</g>
</svg>
