<?xml version="1.0" encoding="UTF-8" standalone="no"?>
<!DOCTYPE svg PUBLIC "-//W3C//DTD SVG 1.1//EN"
 "http://www.w3.org/Graphics/SVG/1.1/DTD/svg11.dtd">
<!-- Generated by graphviz version 2.43.0 (0)
 -->
<!-- Title: G Pages: 1 -->
<svg width="523pt" height="253pt"
 viewBox="0.00 0.00 523.00 253.00" xmlns="http://www.w3.org/2000/svg" xmlns:xlink="http://www.w3.org/1999/xlink">
<g id="graph0" class="graph" transform="scale(1 1) rotate(0) translate(4 249)">
<title>G</title>
<polygon fill="white" stroke="transparent" points="-4,4 -4,-249 519,-249 519,4 -4,4"/>
<g id="clust1" class="cluster">
<title>cluster1</title>
<polygon fill="#78dbe2" stroke="#78dbe2" points="8,-8 8,-237 507,-237 507,-8 8,-8"/>
</g>
<!-- _88716844466592 -->
<g id="node1" class="node">
<title>_88716844466592</title>
<polygon fill="#9f8170" stroke="#050505" points="172,-192.5 172,-228.5 252,-228.5 252,-192.5 172,-192.5"/>
<text text-anchor="middle" x="212" y="-206.8" font-family="Times,serif" font-size="14.00" fill="#0a2033">A person</text>
</g>
<!-- _88716844466944 -->
<g id="node2" class="node">
<title>_88716844466944</title>
<polygon fill="#9f8170" stroke="#050505" points="114,-104.5 114,-140.5 168,-140.5 168,-104.5 114,-104.5"/>
<text text-anchor="middle" x="141" y="-118.8" font-family="Times,serif" font-size="14.00" fill="#0a2033">A cat</text>
</g>
<!-- _88716844466592&#45;&gt;_88716844466944 -->
<g id="edge1" class="edge">
<title>_88716844466592&#45;&gt;_88716844466944</title>
<path fill="none" stroke="#b32851" d="M197.63,-192.1C187.27,-179.54 173.12,-162.41 161.56,-148.41"/>
<polygon fill="#b32851" stroke="#b32851" points="164.17,-146.07 155.1,-140.58 158.77,-150.52 164.17,-146.07"/>
<text text-anchor="middle" x="190.5" y="-162.8" font-family="Times,serif" font-size="14.00">No</text>
</g>
<!-- _88716844468000 -->
<g id="node5" class="node">
<title>_88716844468000</title>
<polygon fill="#9f8170" stroke="#050505" points="257,-104.5 257,-140.5 311,-140.5 311,-104.5 257,-104.5"/>
<text text-anchor="middle" x="284" y="-118.8" font-family="Times,serif" font-size="14.00" fill="#0a2033">Male</text>
</g>
<!-- _88716844466592&#45;&gt;_88716844468000 -->
<g id="edge4" class="edge">
<title>_88716844466592&#45;&gt;_88716844468000</title>
<path fill="none" stroke="#03c03c" d="M226.57,-192.1C237.08,-179.54 251.42,-162.41 263.15,-148.41"/>
<polygon fill="#03c03c" stroke="#03c03c" points="265.96,-150.5 269.7,-140.58 260.59,-146 265.96,-150.5"/>
<text text-anchor="middle" x="264.5" y="-162.8" font-family="Times,serif" font-size="14.00">Yes</text>
</g>
<!-- _88716844467296 -->
<g id="node3" class="node">
<title>_88716844467296</title>
<polygon fill="#755d9a" stroke="#050505" points="16,-16.5 16,-52.5 72,-52.5 72,-16.5 16,-16.5"/>
<text text-anchor="middle" x="44" y="-30.8" font-family="Times,serif" font-size="14.00" fill="#0a2033">Bobic</text>
</g>
<!-- _88716844466944&#45;&gt;_88716844467296 -->
<g id="edge2" class="edge">
<title>_88716844466944&#45;&gt;_88716844467296</title>
<path fill="none" stroke="#b32851" d="M121.37,-104.1C106.81,-91.19 86.8,-73.45 70.77,-59.24"/>
<polygon fill="#b32851" stroke="#b32851" points="73.07,-56.6 63.27,-52.58 68.43,-61.84 73.07,-56.6"/>
<text text-anchor="middle" x="108.5" y="-74.8" font-family="Times,serif" font-size="14.00">No</text>
</g>
<!-- _88716844467648 -->
<g id="node4" class="node">
<title>_88716844467648</title>
<polygon fill="#755d9a" stroke="#050505" points="90.5,-16.5 90.5,-52.5 191.5,-52.5 191.5,-16.5 90.5,-16.5"/>
<text text-anchor="middle" x="141" y="-30.8" font-family="Times,serif" font-size="14.00" fill="#0a2033">Poltorashka</text>
</g>
<!-- _88716844466944&#45;&gt;_88716844467648 -->
<g id="edge3" class="edge">
<title>_88716844466944&#45;&gt;_88716844467648</title>
<path fill="none" stroke="#03c03c" d="M141,-104.1C141,-92.25 141,-76.32 141,-62.79"/>
<polygon fill="#03c03c" stroke="#03c03c" points="144.5,-62.58 141,-52.58 137.5,-62.58 144.5,-62.58"/>
<text text-anchor="middle" x="153.5" y="-74.8" font-family="Times,serif" font-size="14.00">Yes</text>
</g>
<!-- _88716844468352 -->
<g id="node6" class="node">
<title>_88716844468352</title>
<polygon fill="#755d9a" stroke="#050505" points="209.5,-16.5 209.5,-52.5 358.5,-52.5 358.5,-16.5 209.5,-16.5"/>
<text text-anchor="middle" x="284" y="-30.8" font-family="Times,serif" font-size="14.00" fill="#0a2033">Olga Vladimirovna</text>
</g>
<!-- _88716844468000&#45;&gt;_88716844468352 -->
<g id="edge5" class="edge">
<title>_88716844468000&#45;&gt;_88716844468352</title>
<path fill="none" stroke="#b32851" d="M284,-104.1C284,-92.25 284,-76.32 284,-62.79"/>
<polygon fill="#b32851" stroke="#b32851" points="287.5,-62.58 284,-52.58 280.5,-62.58 287.5,-62.58"/>
<text text-anchor="middle" x="294.5" y="-74.8" font-family="Times,serif" font-size="14.00">No</text>
</g>
<!-- _88716844468704 -->
<g id="node7" class="node">
<title>_88716844468704</title>
<polygon fill="#755d9a" stroke="#050505" points="377,-16.5 377,-52.5 499,-52.5 499,-16.5 377,-16.5"/>
<text text-anchor="middle" x="438" y="-30.8" font-family="Times,serif" font-size="14.00" fill="#0a2033">Iliya Dedinskiy</text>
</g>
<!-- _88716844468000&#45;&gt;_88716844468704 -->
<g id="edge6" class="edge">
<title>_88716844468000&#45;&gt;_88716844468704</title>
<path fill="none" stroke="#03c03c" d="M311.18,-106.32C335.38,-92.81 371.1,-72.86 398.46,-57.58"/>
<polygon fill="#03c03c" stroke="#03c03c" points="400.37,-60.52 407.4,-52.59 396.96,-54.41 400.37,-60.52"/>
<text text-anchor="middle" x="382.5" y="-74.8" font-family="Times,serif" font-size="14.00">Yes</text>
</g>
</g>
</svg>
