<?xml version="1.0" encoding="UTF-8" standalone="no"?>
<!DOCTYPE svg PUBLIC "-//W3C//DTD SVG 1.1//EN"
 "http://www.w3.org/Graphics/SVG/1.1/DTD/svg11.dtd">
<!-- Generated by graphviz version 2.43.0 (0)
 -->
<!-- Title: G Pages: 1 -->
<svg width="361pt" height="341pt"
 viewBox="0.00 0.00 361.00 341.00" xmlns="http://www.w3.org/2000/svg" xmlns:xlink="http://www.w3.org/1999/xlink">
<g id="graph0" class="graph" transform="scale(1 1) rotate(0) translate(4 337)">
<title>G</title>
<polygon fill="white" stroke="transparent" points="-4,4 -4,-337 357,-337 357,4 -4,4"/>
<g id="clust1" class="cluster">
<title>cluster1</title>
<polygon fill="#ebd1d7" stroke="#ebd1d7" points="8,-8 8,-325 345,-325 345,-8 8,-8"/>
</g>
<!-- _106309030511008 -->
<g id="node1" class="node">
<title>_106309030511008</title>
<polygon fill="#6c4675" stroke="#050505" points="120,-280.5 120,-316.5 176,-316.5 176,-280.5 120,-280.5"/>
<text text-anchor="middle" x="148" y="-294.8" font-family="Times,serif" font-size="14.00" fill="#0a2033">Dick?</text>
</g>
<!-- _106309030511360 -->
<g id="node2" class="node">
<title>_106309030511360</title>
<polygon fill="#6c4675" stroke="#050505" points="40,-192.5 40,-228.5 176,-228.5 176,-192.5 40,-192.5"/>
<text text-anchor="middle" x="108" y="-206.8" font-family="Times,serif" font-size="14.00" fill="#0a2033">ALLAHUAKBAR?</text>
</g>
<!-- _106309030511008&#45;&gt;_106309030511360 -->
<g id="edge1" class="edge">
<title>_106309030511008&#45;&gt;_106309030511360</title>
<path fill="none" stroke="#1e2460" d="M139.91,-280.1C134.28,-268.01 126.69,-251.68 120.32,-237.99"/>
<polygon fill="#1e2460" stroke="#1e2460" points="123.34,-236.18 115.95,-228.58 116.99,-239.13 123.34,-236.18"/>
<text text-anchor="middle" x="140.5" y="-250.8" font-family="Times,serif" font-size="14.00">No</text>
</g>
<!-- _106309030513120 -->
<g id="node7" class="node">
<title>_106309030513120</title>
<polygon fill="#6c4675" stroke="#050505" points="194,-192.5 194,-228.5 258,-228.5 258,-192.5 194,-192.5"/>
<text text-anchor="middle" x="226" y="-206.8" font-family="Times,serif" font-size="14.00" fill="#0a2033">Pisun?</text>
</g>
<!-- _106309030511008&#45;&gt;_106309030513120 -->
<g id="edge6" class="edge">
<title>_106309030511008&#45;&gt;_106309030513120</title>
<path fill="none" stroke="#1e2460" d="M163.78,-280.1C175.28,-267.42 191,-250.09 203.76,-236.02"/>
<polygon fill="#1e2460" stroke="#1e2460" points="206.38,-238.34 210.51,-228.58 201.19,-233.64 206.38,-238.34"/>
<text text-anchor="middle" x="203.5" y="-250.8" font-family="Times,serif" font-size="14.00">Yes</text>
</g>
<!-- _106309030511712 -->
<g id="node3" class="node">
<title>_106309030511712</title>
<polygon fill="#6c4675" stroke="#050505" points="16,-104.5 16,-140.5 78,-140.5 78,-104.5 16,-104.5"/>
<text text-anchor="middle" x="47" y="-118.8" font-family="Times,serif" font-size="14.00" fill="#0a2033">ABIBA</text>
</g>
<!-- _106309030511360&#45;&gt;_106309030511712 -->
<g id="edge2" class="edge">
<title>_106309030511360&#45;&gt;_106309030511712</title>
<path fill="none" stroke="#1e2460" d="M95.66,-192.1C86.83,-179.66 74.83,-162.73 64.95,-148.8"/>
<polygon fill="#1e2460" stroke="#1e2460" points="67.76,-146.72 59.12,-140.58 62.05,-150.77 67.76,-146.72"/>
<text text-anchor="middle" x="91.5" y="-162.8" font-family="Times,serif" font-size="14.00">No</text>
</g>
<!-- _106309030512768 -->
<g id="node6" class="node">
<title>_106309030512768</title>
<polygon fill="#6c4675" stroke="#050505" points="96,-104.5 96,-140.5 164,-140.5 164,-104.5 96,-104.5"/>
<text text-anchor="middle" x="130" y="-118.8" font-family="Times,serif" font-size="14.00" fill="#0a2033">ABOBA</text>
</g>
<!-- _106309030511360&#45;&gt;_106309030512768 -->
<g id="edge5" class="edge">
<title>_106309030511360&#45;&gt;_106309030512768</title>
<path fill="none" stroke="#1e2460" d="M112.45,-192.1C115.51,-180.13 119.64,-164 123.12,-150.39"/>
<polygon fill="#1e2460" stroke="#1e2460" points="126.54,-151.14 125.63,-140.58 119.76,-149.4 126.54,-151.14"/>
<text text-anchor="middle" x="132.5" y="-162.8" font-family="Times,serif" font-size="14.00">Yes</text>
</g>
<!-- _106309030512064 -->
<g id="node4" class="node">
<title>_106309030512064</title>
<polygon fill="#6c4675" stroke="#050505" points="16,-16.5 16,-52.5 76,-52.5 76,-16.5 16,-16.5"/>
<text text-anchor="middle" x="46" y="-30.8" font-family="Times,serif" font-size="14.00" fill="#0a2033">mama</text>
</g>
<!-- _106309030511712&#45;&gt;_106309030512064 -->
<g id="edge3" class="edge">
<title>_106309030511712&#45;&gt;_106309030512064</title>
<path fill="none" stroke="#1e2460" d="M46.8,-104.1C46.66,-92.25 46.47,-76.32 46.32,-62.79"/>
<polygon fill="#1e2460" stroke="#1e2460" points="49.81,-62.54 46.2,-52.58 42.82,-62.62 49.81,-62.54"/>
<text text-anchor="middle" x="56.5" y="-74.8" font-family="Times,serif" font-size="14.00">No</text>
</g>
<!-- _106309030512416 -->
<g id="node5" class="node">
<title>_106309030512416</title>
<polygon fill="#6c4675" stroke="#050505" points="94,-16.5 94,-52.5 148,-52.5 148,-16.5 94,-16.5"/>
<text text-anchor="middle" x="121" y="-30.8" font-family="Times,serif" font-size="14.00" fill="#0a2033">papa</text>
</g>
<!-- _106309030511712&#45;&gt;_106309030512416 -->
<g id="edge4" class="edge">
<title>_106309030511712&#45;&gt;_106309030512416</title>
<path fill="none" stroke="#1e2460" d="M61.98,-104.1C72.78,-91.54 87.52,-74.41 99.57,-60.41"/>
<polygon fill="#1e2460" stroke="#1e2460" points="102.43,-62.45 106.3,-52.58 97.12,-57.88 102.43,-62.45"/>
<text text-anchor="middle" x="100.5" y="-74.8" font-family="Times,serif" font-size="14.00">Yes</text>
</g>
<!-- _106309030513472 -->
<g id="node8" class="node">
<title>_106309030513472</title>
<polygon fill="#6c4675" stroke="#050505" points="182.5,-104.5 182.5,-140.5 253.5,-140.5 253.5,-104.5 182.5,-104.5"/>
<text text-anchor="middle" x="218" y="-118.8" font-family="Times,serif" font-size="14.00" fill="#0a2033">BOBUS</text>
</g>
<!-- _106309030513120&#45;&gt;_106309030513472 -->
<g id="edge7" class="edge">
<title>_106309030513120&#45;&gt;_106309030513472</title>
<path fill="none" stroke="#1e2460" d="M224.38,-192.1C223.28,-180.25 221.8,-164.32 220.54,-150.79"/>
<polygon fill="#1e2460" stroke="#1e2460" points="224,-150.22 219.59,-140.58 217.03,-150.87 224,-150.22"/>
<text text-anchor="middle" x="232.5" y="-162.8" font-family="Times,serif" font-size="14.00">No</text>
</g>
<!-- _106309030513824 -->
<g id="node9" class="node">
<title>_106309030513824</title>
<polygon fill="#6c4675" stroke="#050505" points="271.5,-104.5 271.5,-140.5 336.5,-140.5 336.5,-104.5 271.5,-104.5"/>
<text text-anchor="middle" x="304" y="-118.8" font-family="Times,serif" font-size="14.00" fill="#0a2033">BOBIC</text>
</g>
<!-- _106309030513120&#45;&gt;_106309030513824 -->
<g id="edge8" class="edge">
<title>_106309030513120&#45;&gt;_106309030513824</title>
<path fill="none" stroke="#1e2460" d="M241.78,-192.1C253.28,-179.42 269,-162.09 281.76,-148.02"/>
<polygon fill="#1e2460" stroke="#1e2460" points="284.38,-150.34 288.51,-140.58 279.19,-145.64 284.38,-150.34"/>
<text text-anchor="middle" x="281.5" y="-162.8" font-family="Times,serif" font-size="14.00">Yes</text>
</g>
</g>
</svg>
