<?xml version="1.0" encoding="UTF-8" standalone="no"?>
<!DOCTYPE svg PUBLIC "-//W3C//DTD SVG 1.1//EN"
 "http://www.w3.org/Graphics/SVG/1.1/DTD/svg11.dtd">
<!-- Generated by graphviz version 2.43.0 (0)
 -->
<!-- Title: G Pages: 1 -->
<svg width="491pt" height="325pt"
 viewBox="0.00 0.00 491.00 325.00" xmlns="http://www.w3.org/2000/svg" xmlns:xlink="http://www.w3.org/1999/xlink">
<g id="graph0" class="graph" transform="scale(1 1) rotate(0) translate(4 321)">
<title>G</title>
<polygon fill="white" stroke="transparent" points="-4,4 -4,-321 487,-321 487,4 -4,4"/>
<g id="clust1" class="cluster">
<title>cluster1</title>
<polygon fill="#ff9696" stroke="#ff9696" points="8,-8 8,-309 475,-309 475,-8 8,-8"/>
</g>
<!-- _88716844466592 -->
<g id="node1" class="node">
<title>_88716844466592</title>
<polygon fill="#cc4646" stroke="#050505" points="161,-272.5 161,-308.5 241,-308.5 241,-272.5 161,-272.5"/>
<text text-anchor="middle" x="201" y="-286.8" font-family="Times,serif" font-size="14.00" fill="#000000">A person</text>
</g>
<!-- _88716844468000 -->
<g id="node2" class="node">
<title>_88716844468000</title>
<polygon fill="#cc4646" stroke="#050505" points="107,-184.5 107,-220.5 161,-220.5 161,-184.5 107,-184.5"/>
<text text-anchor="middle" x="134" y="-198.8" font-family="Times,serif" font-size="14.00" fill="#000000">A cat</text>
</g>
<!-- _88716844466592&#45;&gt;_88716844468000 -->
<g id="edge1" class="edge">
<title>_88716844466592&#45;&gt;_88716844468000</title>
<path fill="none" stroke="#cd0000" d="M187.44,-272.1C177.75,-259.66 164.56,-242.73 153.71,-228.8"/>
<polygon fill="#cd0000" stroke="#cd0000" points="156.22,-226.32 147.31,-220.58 150.69,-230.62 156.22,-226.32"/>
<text text-anchor="middle" x="181.5" y="-242.8" font-family="Times,serif" font-size="14.00">No</text>
</g>
<!-- _88716844466944 -->
<g id="node7" class="node">
<title>_88716844466944</title>
<polygon fill="#cc4646" stroke="#050505" points="242,-184.5 242,-220.5 296,-220.5 296,-184.5 242,-184.5"/>
<text text-anchor="middle" x="269" y="-198.8" font-family="Times,serif" font-size="14.00" fill="#000000">Male</text>
</g>
<!-- _88716844466592&#45;&gt;_88716844466944 -->
<g id="edge6" class="edge">
<title>_88716844466592&#45;&gt;_88716844466944</title>
<path fill="none" stroke="#03c03c" d="M214.76,-272.1C224.6,-259.66 237.98,-242.73 248.99,-228.8"/>
<polygon fill="#03c03c" stroke="#03c03c" points="252.03,-230.6 255.49,-220.58 246.54,-226.26 252.03,-230.6"/>
<text text-anchor="middle" x="251.5" y="-242.8" font-family="Times,serif" font-size="14.00">Yes</text>
</g>
<!-- _88716844468704 -->
<g id="node3" class="node">
<title>_88716844468704</title>
<polygon fill="#cc4646" stroke="#050505" points="8.5,-96.5 8.5,-132.5 65.5,-132.5 65.5,-96.5 8.5,-96.5"/>
<text text-anchor="middle" x="37" y="-110.8" font-family="Times,serif" font-size="14.00" fill="#000000">A dog</text>
</g>
<!-- _88716844468000&#45;&gt;_88716844468704 -->
<g id="edge2" class="edge">
<title>_88716844468000&#45;&gt;_88716844468704</title>
<path fill="none" stroke="#cd0000" d="M114.37,-184.1C99.81,-171.19 79.8,-153.45 63.77,-139.24"/>
<polygon fill="#cd0000" stroke="#cd0000" points="66.07,-136.6 56.27,-132.58 61.43,-141.84 66.07,-136.6"/>
<text text-anchor="middle" x="101.5" y="-154.8" font-family="Times,serif" font-size="14.00">No</text>
</g>
<!-- _88716844468352 -->
<g id="node6" class="node">
<title>_88716844468352</title>
<polygon fill="#8e1f1f" stroke="#050505" points="83.5,-96.5 83.5,-132.5 184.5,-132.5 184.5,-96.5 83.5,-96.5"/>
<text text-anchor="middle" x="134" y="-110.8" font-family="Times,serif" font-size="14.00" fill="#000000">Poltorashka</text>
</g>
<!-- _88716844468000&#45;&gt;_88716844468352 -->
<g id="edge5" class="edge">
<title>_88716844468000&#45;&gt;_88716844468352</title>
<path fill="none" stroke="#03c03c" d="M134,-184.1C134,-172.25 134,-156.32 134,-142.79"/>
<polygon fill="#03c03c" stroke="#03c03c" points="137.5,-142.58 134,-132.58 130.5,-142.58 137.5,-142.58"/>
<text text-anchor="middle" x="146.5" y="-154.8" font-family="Times,serif" font-size="14.00">Yes</text>
</g>
<!-- _88716844469408 -->
<g id="node4" class="node">
<title>_88716844469408</title>
<polygon fill="#8e1f1f" stroke="#050505" points="8,-8.5 8,-44.5 64,-44.5 64,-8.5 8,-8.5"/>
<text text-anchor="middle" x="36" y="-22.8" font-family="Times,serif" font-size="14.00" fill="#000000">Bobic</text>
</g>
<!-- _88716844468704&#45;&gt;_88716844469408 -->
<g id="edge3" class="edge">
<title>_88716844468704&#45;&gt;_88716844469408</title>
<path fill="none" stroke="#cd0000" d="M36.8,-96.1C36.66,-84.25 36.47,-68.32 36.32,-54.79"/>
<polygon fill="#cd0000" stroke="#cd0000" points="39.81,-54.54 36.2,-44.58 32.82,-54.62 39.81,-54.54"/>
<text text-anchor="middle" x="47.5" y="-66.8" font-family="Times,serif" font-size="14.00">No</text>
</g>
<!-- _88716844469056 -->
<g id="node5" class="node">
<title>_88716844469056</title>
<polygon fill="#8e1f1f" stroke="#050505" points="82,-8.5 82,-44.5 144,-44.5 144,-8.5 82,-8.5"/>
<text text-anchor="middle" x="113" y="-22.8" font-family="Times,serif" font-size="14.00" fill="#000000">Sharic</text>
</g>
<!-- _88716844468704&#45;&gt;_88716844469056 -->
<g id="edge4" class="edge">
<title>_88716844468704&#45;&gt;_88716844469056</title>
<path fill="none" stroke="#03c03c" d="M52.38,-96.1C63.47,-83.54 78.61,-66.41 90.99,-52.41"/>
<polygon fill="#03c03c" stroke="#03c03c" points="93.9,-54.4 97.9,-44.58 88.66,-49.76 93.9,-54.4"/>
<text text-anchor="middle" x="91.5" y="-66.8" font-family="Times,serif" font-size="14.00">Yes</text>
</g>
<!-- _88716844467648 -->
<g id="node8" class="node">
<title>_88716844467648</title>
<polygon fill="#8e1f1f" stroke="#050505" points="203,-96.5 203,-132.5 335,-132.5 335,-96.5 203,-96.5"/>
<text text-anchor="middle" x="269" y="-110.8" font-family="Times,serif" font-size="14.00" fill="#000000">Olga Chucanova</text>
</g>
<!-- _88716844466944&#45;&gt;_88716844467648 -->
<g id="edge7" class="edge">
<title>_88716844466944&#45;&gt;_88716844467648</title>
<path fill="none" stroke="#cd0000" d="M269,-184.1C269,-172.25 269,-156.32 269,-142.79"/>
<polygon fill="#cd0000" stroke="#cd0000" points="272.5,-142.58 269,-132.58 265.5,-142.58 272.5,-142.58"/>
<text text-anchor="middle" x="279.5" y="-154.8" font-family="Times,serif" font-size="14.00">No</text>
</g>
<!-- _88716844467296 -->
<g id="node9" class="node">
<title>_88716844467296</title>
<polygon fill="#8e1f1f" stroke="#050505" points="353,-96.5 353,-132.5 475,-132.5 475,-96.5 353,-96.5"/>
<text text-anchor="middle" x="414" y="-110.8" font-family="Times,serif" font-size="14.00" fill="#000000">Iliya Dedinskiy</text>
</g>
<!-- _88716844466944&#45;&gt;_88716844467296 -->
<g id="edge8" class="edge">
<title>_88716844466944&#45;&gt;_88716844467296</title>
<path fill="none" stroke="#03c03c" d="M296.27,-185.32C318.85,-171.93 351.17,-152.77 376.24,-137.9"/>
<polygon fill="#03c03c" stroke="#03c03c" points="378.29,-140.75 385.11,-132.63 374.72,-134.73 378.29,-140.75"/>
<text text-anchor="middle" x="362.5" y="-154.8" font-family="Times,serif" font-size="14.00">Yes</text>
</g>
</g>
</svg>
